<?xml version="1.0" encoding="UTF-8"?>
<svg width="39px" height="25px" viewBox="0 0 39 25" version="1.1" xmlns="http://www.w3.org/2000/svg" xmlns:xlink="http://www.w3.org/1999/xlink">
    <!-- Generator: Sketch 53.1 (72631) - https://sketchapp.com -->
    <title>Slice 1</title>
    <desc>Created with Sketch.</desc>
    <g id="Page-1" stroke="none" stroke-width="1" fill="none" fill-rule="evenodd">
        <g id="behance" fill="#E0E4E6" fill-rule="nonzero">
            <path d="M35.0456403,1.61684047 L25.3554449,1.61684047 L25.3554449,3.96778091 L35.0456403,3.96778091 L35.0456403,1.61684047 Z M30.2672962,9.69523986 C27.9916053,9.69523986 26.474478,11.1176984 26.3227653,13.3933893 L34.0601144,13.3933893 C33.8513577,11.0982792 32.6570751,9.69523986 30.2672962,9.69523986 L30.2672962,9.69523986 Z M30.5707217,20.7896883 C32.0125995,20.7896883 33.870777,20.0117054 34.3259151,18.5334166 L38.5168276,18.5334166 C37.2278762,22.4973668 34.5528774,24.3555443 30.4190089,24.3555442 C24.9573507,24.3555442 21.5626267,20.6573948 21.5626267,15.2721998 C21.5626267,10.0763422 25.1466882,6.11239207 30.4190089,6.11239207 C35.8430424,6.11239207 38.8384585,10.3797677 38.8384585,15.499162 C38.8384585,15.8025875 38.8190393,16.1060129 38.8008338,16.3900192 L26.3227653,16.3900192 C26.3227653,19.158473 27.7828486,20.7896883 30.5707217,20.7896883 Z M5.25290152,19.8405734 L10.8662725,19.8405734 C13.0096699,19.8405734 14.7537594,19.0820098 14.7537594,16.6740254 C14.7537594,14.2272025 13.2936761,13.2610958 10.9803604,13.2610958 L5.25290152,13.2610958 L5.25290152,19.8417872 L5.25290152,19.8405734 Z M5.25290152,9.65761508 L10.5822663,9.65761508 C12.459863,9.65761508 13.7876528,8.84200745 13.7876528,6.81269801 C13.7876528,4.6122566 12.081188,4.08186891 10.184172,4.08186891 L5.25411521,4.08186891 L5.25411521,9.65761508 L5.25290152,9.65761508 Z M0,0.00504444823 L11.2643667,0.00504444823 C15.3606104,0.00504444823 18.9070471,1.16170228 18.9070471,5.92184086 C18.9070471,8.32982528 17.788014,9.88579104 15.6446166,10.9089417 C18.5842024,11.7439685 20.0066609,13.9626155 20.006661,16.9580316 C20.006661,21.8128389 15.9298365,23.8991924 11.5872114,23.8991924 L0,23.8991924 L0,0.00383076062 L0,0.00504444823 Z" id="形状"></path>
        </g>
    </g>
</svg>