<?xml version="1.0" encoding="UTF-8"?>
<svg width="145px" height="147px" viewBox="0 0 145 147" version="1.1" xmlns="http://www.w3.org/2000/svg" xmlns:xlink="http://www.w3.org/1999/xlink">
    <!-- Generator: Sketch 53.1 (72631) - https://sketchapp.com -->
    <title>Slice 1</title>
    <desc>Created with Sketch.</desc>
    <defs>
        <polygon id="path-1" points="0.000351807229 0.849614458 144.27034 0.849614458 144.27034 145.120394 0.000351807229 145.120394"></polygon>
    </defs>
    <g id="Page-1" stroke="none" stroke-width="1" fill="none" fill-rule="evenodd">
        <g id="品牌设计" transform="translate(0.000000, 1.000000)">
            <g id="分组" transform="translate(0.000000, 0.029904)">
                <mask id="mask-2" fill="white">
                    <use xlink:href="#path-1"></use>
                </mask>
                <g id="Clip-2"></g>
                <path d="M144.27034,72.9849602 C144.27034,112.82449 111.974436,145.120394 72.134906,145.120394 C32.2962554,145.120394 0.000351807229,112.82449 0.000351807229,72.9849602 C0.000351807229,33.1463096 32.2962554,0.849526506 72.134906,0.849526506 C111.974436,0.849526506 144.27034,33.1463096 144.27034,72.9849602" id="Fill-1" fill="#101010" mask="url(#mask-2)"></path>
            </g>
            <g id="分组" opacity="0.5" transform="translate(39.578313, 40.487735)" fill="#F7F7F7">
                <path d="M3.8618759,40.856341 L4.31043012,40.856341 C5.28141807,40.856341 6.06946627,40.0682928 6.06946627,39.0973048 C6.06946627,38.1263169 5.28141807,37.3382687 4.31043012,37.3382687 L3.8618759,37.3382687 L3.8618759,30.5835699 L4.31043012,30.5835699 C5.28141807,30.5835699 6.06946627,29.7964012 6.06946627,28.8245337 C6.06946627,27.8535458 5.28141807,27.0654976 4.31043012,27.0654976 L3.8618759,27.0654976 L3.8618759,20.3116783 L4.31043012,20.3116783 C5.28141807,20.3116783 6.06946627,19.5245096 6.06946627,18.5526422 C6.06946627,17.5816542 5.28141807,16.793606 4.31043012,16.793606 L3.8618759,16.793606 L3.8618759,10.0389072 L4.31043012,10.0389072 C5.28141807,10.0389072 6.06946627,9.25173855 6.06946627,8.27987108 C6.06946627,7.30888313 5.28141807,6.52083494 4.31043012,6.52083494 L3.8618759,6.52083494 L3.8618759,3.78201566 L44.7392373,3.78201566 L3.8618759,49.2698108 L3.8618759,40.856341 Z M50.1702614,2.95526867 C50.2001651,2.90865422 50.223912,2.86116024 50.247659,2.81278675 C50.2749241,2.75913614 50.3013096,2.70636506 50.3224181,2.6500759 C50.3435265,2.5964253 50.3575988,2.54189518 50.3734301,2.48736506 C50.3875024,2.43195542 50.4033337,2.37830482 50.4130084,2.32113614 C50.4226831,2.2604494 50.4270807,2.19888313 50.4314783,2.13731687 C50.4341169,2.09861807 50.442912,2.06255783 50.442912,2.02297952 C50.442912,2.00714819 50.4385145,1.99219639 50.4385145,1.97636506 C50.4367554,1.9147988 50.4270807,1.85323253 50.4200446,1.79078675 C50.4130084,1.73713614 50.4077313,1.68348554 50.3954181,1.63159398 C50.3831048,1.57530482 50.3628759,1.52165422 50.3452855,1.4671241 C50.3268157,1.41347349 50.3118639,1.35894337 50.2881169,1.30793133 C50.2652494,1.25691928 50.2353458,1.20854578 50.2072012,1.15929277 C50.1790566,1.10916024 50.1526711,1.05814819 50.1201289,1.01241325 C50.0893458,0.967557831 50.052406,0.927979518 50.0163458,0.886642169 C49.975888,0.839148193 49.9363096,0.792533735 49.8914542,0.749437349 C49.8800205,0.738883133 49.8721048,0.725690361 49.8597916,0.714256627 C49.8307675,0.688750602 49.7982253,0.671160241 49.7665627,0.647413253 C49.7190687,0.608714458 49.6706952,0.570895181 49.6170446,0.537473494 C49.5695506,0.50756988 49.5202976,0.482943373 49.4692855,0.457437349 C49.4182735,0.431051807 49.3663819,0.405545783 49.3118518,0.384437349 C49.2573217,0.364208434 49.2027916,0.348377108 49.1465024,0.333425301 C49.0919723,0.318473494 49.0383217,0.304401205 48.982912,0.293846988 C48.9204663,0.284172289 48.8597795,0.279774699 48.7982133,0.275377108 C48.760394,0.272738554 48.7234542,0.263943373 48.6838759,0.263943373 L2.10283976,0.263943373 C1.13185181,0.263943373 0.343803614,1.05199157 0.343803614,2.02297952 L0.343803614,53.8600157 C0.343803614,53.8749675 0.347321687,53.8890398 0.348201205,53.9048711 C0.349960241,53.9690759 0.358755422,54.0324012 0.366671084,54.0957265 C0.374586747,54.1476181 0.378984337,54.2003892 0.390418072,54.2505217 C0.403610843,54.3076904 0.423839759,54.3631 0.442309639,54.4185096 C0.460779518,54.4712807 0.475731325,54.5249313 0.498598795,54.5750639 C0.521466265,54.6269554 0.55136988,54.6753289 0.580393976,54.7254614 C0.608538554,54.7747145 0.634044578,54.824847 0.666586747,54.8705819 C0.69736988,54.9145578 0.734309639,54.9550157 0.77036988,54.9972325 C0.810827711,55.043847 0.850406024,55.091341 0.895261446,55.1335578 C0.906695181,55.1449916 0.914610843,55.1573048 0.926924096,55.167859 C0.959466265,55.1977627 0.996406024,55.2197506 1.03070723,55.2461361 C1.07204458,55.2777988 1.11162289,55.310341 1.1555988,55.3384855 C1.2092494,55.3727867 1.26553855,55.4009313 1.32182771,55.4281964 C1.36404458,55.4493048 1.40538193,55.4730518 1.45023735,55.4906422 C1.51532169,55.5170277 1.58304458,55.5346181 1.65076747,55.553088 C1.68946627,55.5636422 1.72728554,55.5777145 1.76774337,55.5856301 C1.87768313,55.6067386 1.99026145,55.6190518 2.10196024,55.6190518 L2.10283976,55.6190518 C2.22509277,55.6190518 2.34382771,55.605859 2.4599241,55.582112 C2.46783976,55.580353 2.47575542,55.5768349 2.48367108,55.5750759 C2.59185181,55.5513289 2.69739398,55.5179072 2.79677952,55.4756904 C2.83108072,55.4607386 2.86186386,55.4387506 2.89440602,55.4220398 C2.96652651,55.3859795 3.03864699,55.3490398 3.10549036,55.3024253 C3.1415506,55.2769193 3.17409277,55.2452566 3.20927349,55.217112 C3.26732169,55.1687386 3.3262494,55.1203651 3.37726145,55.0658349 C3.38869518,55.0544012 3.40100843,55.0473651 3.41068313,55.0359313 L49.9917193,3.19889518 C50.0172253,3.17163012 50.0339361,3.13996747 50.0559241,3.11094337 C50.0963819,3.05993133 50.1359602,3.0097988 50.1702614,2.95526867 L50.1702614,2.95526867 Z" id="Fill-3"></path>
                <path d="M11.2655711,27.7894289 L11.2655711,11.395212 L25.8822819,11.395212 L11.2655711,27.7894289 Z M31.5613301,9.58692289 C31.5595711,9.52447711 31.5507759,9.46291084 31.5437398,9.40046506 C31.5358241,9.34681446 31.530547,9.29316386 31.5182337,9.24127229 C31.5059205,9.18586265 31.4856916,9.13221205 31.4681012,9.07768193 C31.4496313,9.02315181 31.4338,8.9695012 31.410053,8.91760964 C31.3871855,8.86659759 31.3581614,8.81910361 31.3300169,8.77073012 C31.3009928,8.71971807 31.2746072,8.66870602 31.2411855,8.62209157 C31.2104024,8.57899518 31.1743422,8.53941687 31.1391614,8.49807952 C31.0978241,8.45058554 31.0573663,8.40309157 31.0107518,8.35911566 C30.9993181,8.34768193 30.9914024,8.33448916 30.9782096,8.32305542 C30.9509446,8.29842892 30.9192819,8.28171807 30.8902578,8.25973012 C30.8410048,8.22015181 30.7908723,8.18233253 30.7372217,8.14803133 C30.6897277,8.11812771 30.6395952,8.0935012 30.5912217,8.0688747 C30.5384506,8.04248916 30.4874386,8.01786265 30.4329084,7.99675422 C30.3766193,7.97564578 30.3203301,7.95981446 30.2631614,7.94398313 C30.2103904,7.92991084 30.1593783,7.91671807 30.1057277,7.90704337 C30.0415229,7.89560964 29.975559,7.89121205 29.9104747,7.88769398 C29.875294,7.88593494 29.8427518,7.87713976 29.8075711,7.87713976 L9.50653494,7.87713976 C8.53554699,7.87713976 7.7474988,8.66430843 7.7474988,9.6361759 L7.7474988,32.4060193 C7.7474988,32.4227301 7.75189639,32.4376819 7.7527759,32.4543928 C7.75453494,32.5177181 7.76333012,32.5801639 7.77124578,32.6426096 C7.77828193,32.6962602 7.78355904,32.7490313 7.79587229,32.8000434 C7.80818554,32.8563325 7.82929398,32.9108627 7.84688434,32.9662723 C7.86535422,33.0190434 7.88118554,33.072694 7.90405301,33.123706 C7.92692048,33.1747181 7.95594458,33.2230916 7.98496867,33.2714651 C8.01311325,33.3224771 8.04037831,33.3726096 8.0738,33.4201036 C8.10370361,33.4632 8.13976386,33.5027783 8.17494458,33.5432361 C8.21628193,33.5916096 8.25673976,33.6391036 8.30335422,33.6830795 C8.31566747,33.6936337 8.32358313,33.707706 8.33589639,33.7182602 C8.36755904,33.7464048 8.40273976,33.7666337 8.43528193,33.7921398 C8.4774988,33.8238024 8.51795663,33.8572241 8.56281205,33.8853687 C8.61558313,33.9196699 8.67187229,33.9469349 8.72728193,33.9750795 C8.7694988,33.996188 8.81083614,34.0190554 8.85569157,34.0366458 C8.9207759,34.0630313 8.98761928,34.0806217 9.05534217,34.0990916 C9.09492048,34.1096458 9.13186024,34.1237181 9.17231807,34.1307542 C9.28313735,34.1518627 9.39483614,34.1650554 9.50653494,34.1650554 C9.62966747,34.1650554 9.74928193,34.1518627 9.86537831,34.1281157 C9.87857108,34.1254771 9.89088434,34.118441 9.90407711,34.1158024 C10.0069807,34.0920554 10.1081253,34.0612723 10.2031133,34.0199349 C10.2365349,34.0058627 10.2673181,33.9838747 10.2998602,33.9671639 C10.3728602,33.9302241 10.4449807,33.8924048 10.5118241,33.8466699 C10.5478843,33.8211639 10.579547,33.7903807 10.6129687,33.7631157 C10.6727759,33.7138627 10.7325831,33.6637301 10.7853542,33.607441 C10.7959084,33.5960072 10.8082217,33.5880916 10.8196554,33.5766578 L31.1206916,10.8068145 C31.1461976,10.7777904 31.163788,10.7452482 31.1866554,10.7153446 C31.2244747,10.6669711 31.262294,10.6194771 31.2948361,10.566706 C31.3256193,10.5183325 31.3502458,10.4690795 31.3748723,10.418947 C31.4012578,10.3670554 31.4267639,10.3151639 31.4469928,10.2606337 C31.4681012,10.2061036 31.483053,10.150694 31.4988843,10.0944048 C31.5129566,10.0407542 31.5270289,9.98798313 31.5367036,9.93169398 C31.5481373,9.87012771 31.5516554,9.80856145 31.5551735,9.74523614 C31.557812,9.70829639 31.5666072,9.67311566 31.5666072,9.6361759 C31.5666072,9.61946506 31.5622096,9.60363373 31.5613301,9.58692289 L31.5613301,9.58692289 Z" id="Fill-5"></path>
            </g>
            <path d="M101.993401,40.7518542 L95.0759916,40.7518542 C94.1041241,40.7518542 93.3169554,41.5399024 93.3169554,42.5108904 C93.3169554,43.4818783 94.1041241,44.2699265 95.0759916,44.2699265 L100.234365,44.2699265 L100.234365,55.5462277 C100.234365,56.5180952 101.022413,57.3052639 101.993401,57.3052639 C102.964389,57.3052639 103.752437,56.5180952 103.752437,55.5462277 L103.752437,42.5108904 C103.752437,41.5399024 102.964389,40.7518542 101.993401,40.7518542" id="Fill-7" fill="#EFEFEF"></path>
            <path d="M101.993401,62.3390976 C101.022413,62.3390976 100.234365,63.1271458 100.234365,64.0981337 L100.234365,77.8256518 L86.1277747,77.8256518 L86.1277747,54.2598446 C86.1277747,53.2888566 85.3397265,52.5008084 84.3687386,52.5008084 C83.3968711,52.5008084 82.6097024,53.2888566 82.6097024,54.2598446 L82.6097024,77.8256518 L62.1908108,77.8256518 C61.2198229,77.8256518 60.4317747,78.6137 60.4317747,79.584688 C60.4317747,80.5565554 61.2198229,81.3437241 62.1908108,81.3437241 L75.1707386,81.3437241 L75.1707386,91.6648687 C75.1707386,92.6358566 75.9579072,93.4239048 76.9297747,93.4239048 C77.9007627,93.4239048 78.6888108,92.6358566 78.6888108,91.6648687 L78.6888108,81.3437241 L100.234365,81.3437241 L100.234365,86.519688 C100.234365,87.4915554 101.022413,88.2787241 101.993401,88.2787241 C102.964389,88.2787241 103.752437,87.4915554 103.752437,86.519688 L103.752437,64.0981337 C103.752437,63.1271458 102.964389,62.3390976 101.993401,62.3390976" id="Fill-9" fill="#EFEFEF"></path>
            <path d="M101.993401,93.8338482 C101.022413,93.8338482 100.234365,94.6218964 100.234365,95.5928843 L100.234365,101.760065 L76.3739193,101.760065 C75.4029313,101.760065 74.6148831,102.547234 74.6148831,103.519101 C74.6148831,104.490089 75.4029313,105.278137 76.3739193,105.278137 L101.993401,105.278137 C102.964389,105.278137 103.752437,104.490089 103.752437,103.519101 L103.752437,95.5928843 C103.752437,94.6218964 102.964389,93.8338482 101.993401,93.8338482" id="Fill-11" fill="#EFEFEF"></path>
            <path d="M43.4399253,101.759801 L43.4399253,100.555729 C43.4399253,99.584741 42.6527566,98.7966928 41.6808892,98.7966928 C40.7099012,98.7966928 39.921853,99.584741 39.921853,100.555729 L39.921853,103.518837 C39.921853,104.489825 40.7099012,105.277873 41.6808892,105.277873 L66.831588,105.277873 C67.8025759,105.277873 68.5906241,104.489825 68.5906241,103.518837 C68.5906241,102.547849 67.8025759,101.759801 66.831588,101.759801 L43.4399253,101.759801 Z" id="Fill-13" fill="#EFEFEF"></path>
        </g>
    </g>
</svg>