<?xml version="1.0" encoding="utf-8"?>
<!-- Generator: Adobe Illustrator 23.0.1, SVG Export Plug-In . SVG Version: 6.00 Build 0)  -->
<svg version="1.0" id="图层_1" xmlns="http://www.w3.org/2000/svg" xmlns:xlink="http://www.w3.org/1999/xlink" x="0px" y="0px"
	 viewBox="0 0 145 147" style="enable-background:new 0 0 145 147;" xml:space="preserve">
<style type="text/css">
	.st0{filter:url(#Adobe_OpacityMaskFilter);}
	.st1{fill-rule:evenodd;clip-rule:evenodd;fill:#FFFFFF;}
	.st2{mask:url(#mask-2_1_);fill-rule:evenodd;clip-rule:evenodd;fill:#101010;}
	.st3{fill-rule:evenodd;clip-rule:evenodd;fill:#F7F7F7;fill-opacity:0.5;}
	.st4{fill-rule:evenodd;clip-rule:evenodd;fill:#EFEFEF;}
	.st5{enable-background:new    ;}
	.st6{fill:#EFEFEF;}
</style>
<title>Slice 1</title>
<desc>Created with Sketch.</desc>
<g id="Page-1">
	<g id="交互设计">
		<g transform="translate(0.000000, 0.000000)">
			<g id="分组" transform="translate(0.000000, 0.029904)">
				<g id="Clip-2">
				</g>
				<defs>
					<filter id="Adobe_OpacityMaskFilter" filterUnits="userSpaceOnUse" x="0" y="0.8" width="144.3" height="144.3">
						<feColorMatrix  type="matrix" values="1 0 0 0 0  0 1 0 0 0  0 0 1 0 0  0 0 0 1 0"/>
					</filter>
				</defs>
				<mask maskUnits="userSpaceOnUse" x="0" y="0.8" width="144.3" height="144.3" id="mask-2_1_">
					<g class="st0">
						<polygon id="path-1_1_" class="st1" points="0,0.8 144.3,0.8 144.3,145.1 0,145.1 						"/>
					</g>
				</mask>
				<path id="Fill-1" class="st2" d="M144.3,73c0,39.8-32.3,72.1-72.1,72.1C32.3,145.1,0,112.8,0,73C0,33.1,32.3,0.8,72.1,0.8
					C112,0.8,144.3,33.1,144.3,73"/>
			</g>
			<path id="Fill-3" class="st3" d="M95.1,102.6c-0.2-0.9-1.1-1.5-2-1.2l-38.3,9.1L41,56.8l10.8-4.1c0.9-0.3,1.3-1.3,1-2.1
				c-0.3-0.9-1.3-1.3-2.1-1l-12.2,4.6c0,0,0,0-0.1,0c-0.1,0-0.1,0-0.2,0.1c0,0-0.1,0.1-0.1,0.1c0,0-0.1,0.1-0.1,0.1
				c0,0-0.1,0.1-0.1,0.1c0,0-0.1,0.1-0.1,0.1c0,0-0.1,0.1-0.1,0.1c0,0-0.1,0.1-0.1,0.1c0,0,0,0.1-0.1,0.1c0,0,0,0.1-0.1,0.1
				c0,0.1,0,0.1,0,0.2c0,0.1,0,0.1,0,0.2c0,0.1,0,0.1,0,0.2c0,0.1,0,0.1,0,0.2c0,0.1,0,0.1,0,0.2c0,0,0,0,0,0.1L52,112.8
				c0,0,0,0,0,0c0,0.2,0.1,0.3,0.2,0.5c0,0,0,0,0,0c0.1,0.1,0.2,0.3,0.4,0.4c0,0,0,0,0,0c0.1,0.1,0.3,0.2,0.5,0.2c0,0,0,0,0,0
				c0.2,0.1,0.3,0.1,0.5,0.1c0.1,0,0.3,0,0.4,0l39.8-9.4C94.8,104.4,95.3,103.5,95.1,102.6"/>
			<path id="Fill-5" class="st4" d="M86,43.5v12.3c0,0.9,0.7,1.7,1.7,1.7h14.5v43.9H52.9V43.5H86z M89.3,43.5h0.2l11.3,10.6H89.3
				V43.5z M105.6,54.7c0-0.1,0-0.1,0-0.2c0,0,0-0.1,0-0.1c0-0.1,0-0.1,0-0.2c0-0.1,0-0.1,0-0.1c0,0,0-0.1-0.1-0.1
				c0,0-0.1-0.1-0.1-0.1c0,0-0.1-0.1-0.1-0.1c0,0-0.1-0.1-0.1-0.1c0,0,0,0,0,0L91.3,40.6c0,0-0.1,0-0.1-0.1c0,0-0.1-0.1-0.1-0.1
				c0,0-0.1-0.1-0.1-0.1c0,0-0.1-0.1-0.1-0.1c-0.1,0-0.1,0-0.2-0.1c0,0-0.1,0-0.1,0c-0.1,0-0.1,0-0.2,0c0,0-0.1,0-0.1,0H51.3
				c-0.9,0-1.7,0.7-1.7,1.7V103c0,0.9,0.7,1.7,1.7,1.7h52.6c0.9,0,1.7-0.7,1.7-1.7L105.6,54.7C105.6,54.7,105.6,54.7,105.6,54.7
				L105.6,54.7z"/>
			<g class="st5">
				<path class="st6" d="M68.8,67.8c1,0.8,1.7,2,1.9,3.4h-2.3c-0.2-0.9-0.7-1.6-1.3-2.1c-0.6-0.4-1.5-0.6-2.5-0.6
					c-1.5,0-2.6,0.5-3.4,1.5c-0.7,0.9-1,2.2-1,3.8c0,1.7,0.3,3,1,3.9c0.7,1,1.9,1.5,3.5,1.5c1,0,1.9-0.3,2.5-0.7
					c0.7-0.5,1.2-1.4,1.4-2.4h2.3c-0.3,1.7-1.1,3-2.2,3.9c-1.1,0.9-2.4,1.3-4,1.3c-2.4,0-4.2-0.8-5.3-2.2c-1-1.3-1.5-3-1.5-5.2
					c0-2.1,0.5-3.9,1.6-5.2c1.2-1.5,2.9-2.3,5.2-2.3C66.3,66.4,67.7,66.9,68.8,67.8z"/>
				<path class="st6" d="M82,67.5c1,0.7,1.6,1.9,1.7,3.5h-2.3c-0.2-0.9-0.6-1.5-1.1-1.9c-0.5-0.4-1.3-0.6-2.4-0.6
					c-0.9,0-1.6,0.1-2.1,0.4c-0.6,0.3-0.9,0.8-0.9,1.5c0,0.6,0.3,1.1,1,1.5c0.3,0.2,1.1,0.5,2.4,0.9c1.9,0.6,3.2,1.1,3.7,1.4
					c1.2,0.7,1.9,1.8,1.9,3.1c0,1.3-0.5,2.3-1.5,3c-1,0.7-2.4,1.1-4.2,1.1c-1.8,0-3.1-0.3-4.1-1c-1.2-0.8-1.9-2.2-2-4h2.3
					c0.2,1.1,0.5,1.9,1.2,2.3c0.6,0.4,1.4,0.6,2.6,0.6c1,0,1.9-0.2,2.5-0.5c0.6-0.4,0.9-0.8,0.9-1.4c0-0.8-0.5-1.4-1.3-1.8
					c-0.3-0.1-1.2-0.5-2.8-0.9c-1.8-0.6-2.9-1-3.3-1.2c-1.1-0.7-1.6-1.6-1.6-2.9c0-1.3,0.5-2.3,1.6-3c1-0.7,2.3-1,3.8-1
					C79.8,66.4,81.1,66.8,82,67.5z"/>
				<path class="st6" d="M95,67.5c1,0.7,1.6,1.9,1.7,3.5h-2.3c-0.2-0.9-0.6-1.5-1.1-1.9c-0.5-0.4-1.3-0.6-2.4-0.6
					c-0.9,0-1.6,0.1-2.1,0.4c-0.6,0.3-0.9,0.8-0.9,1.5c0,0.6,0.3,1.1,1,1.5c0.3,0.2,1.1,0.5,2.4,0.9c1.9,0.6,3.2,1.1,3.7,1.4
					c1.2,0.7,1.9,1.8,1.9,3.1c0,1.3-0.5,2.3-1.5,3c-1,0.7-2.4,1.1-4.2,1.1c-1.8,0-3.1-0.3-4.1-1c-1.2-0.8-1.9-2.2-2-4h2.3
					c0.2,1.1,0.5,1.9,1.2,2.3c0.6,0.4,1.4,0.6,2.6,0.6c1,0,1.9-0.2,2.5-0.5c0.6-0.4,0.9-0.8,0.9-1.4c0-0.8-0.5-1.4-1.3-1.8
					c-0.3-0.1-1.2-0.5-2.8-0.9c-1.8-0.6-2.9-1-3.3-1.2c-1.1-0.7-1.6-1.6-1.6-2.9c0-1.3,0.5-2.3,1.6-3c1-0.7,2.3-1,3.8-1
					C92.8,66.4,94.1,66.8,95,67.5z"/>
			</g>
		</g>
	</g>
</g>
</svg>
