<?xml version="1.0" encoding="UTF-8"?>
<svg width="145px" height="147px" viewBox="0 0 145 147" version="1.1" xmlns="http://www.w3.org/2000/svg" xmlns:xlink="http://www.w3.org/1999/xlink">
    <!-- Generator: Sketch 53.1 (72631) - https://sketchapp.com -->
    <title>Slice 1</title>
    <desc>Created with Sketch.</desc>
    <defs>
        <polygon id="path-1" points="0.000263855422 0.849614458 144.270867 0.849614458 144.270867 145.120394 0.000263855422 145.120394"></polygon>
        <polygon id="path-3" points="0 145.150386 144.270867 145.150386 144.270867 0.879518072 0 0.879518072"></polygon>
    </defs>
    <g id="Page-1" stroke="none" stroke-width="1" fill="none" fill-rule="evenodd">
        <g id="插画设计" transform="translate(0.000000, 1.000000)">
            <g id="分组" transform="translate(0.000000, 0.029904)">
                <mask id="mask-2" fill="white">
                    <use xlink:href="#path-1"></use>
                </mask>
                <g id="Clip-2"></g>
                <path d="M144.271131,72.9849602 C144.271131,112.82449 111.974348,145.120394 72.1348181,145.120394 C32.2961675,145.120394 0.000263855422,112.82449 0.000263855422,72.9849602 C0.000263855422,33.1463096 32.2961675,0.849526506 72.1348181,0.849526506 C111.974348,0.849526506 144.271131,33.1463096 144.271131,72.9849602" id="Fill-1" fill="#101010" mask="url(#mask-2)"></path>
            </g>
            <g id="分组" transform="translate(40.457831, 63.355205)" fill="#F7F7F7" fill-opacity="0.5">
                <path d="M64.6704361,37.5031783 L44.7044964,16.6964193 C44.3764361,16.368359 43.9463518,16.2038892 43.515388,16.2038892 C43.0853036,16.2038892 42.6552193,16.368359 42.327159,16.6964193 L29.4123157,29.6103831 L19.7235446,19.921612 C19.3954843,19.5935518 18.9654,19.4290819 18.5353157,19.4290819 C18.1052313,19.4290819 17.6742675,19.5935518 17.3462072,19.921612 L0.606339759,37.5031783 C-0.050660241,38.1592988 -0.050660241,39.2243952 0.606339759,39.8805157 C0.9344,40.2094554 1.36448434,40.3730458 1.79544819,40.3730458 C2.22553253,40.3730458 2.65561687,40.2094554 2.98367711,39.8805157 L18.5353157,23.4880578 L34.928653,39.8805157 C35.2567133,40.2094554 35.6867976,40.3730458 36.1168819,40.3730458 C36.5469663,40.3730458 36.9779301,40.2094554 37.3059904,39.8805157 C37.9621108,39.2243952 37.9621108,38.1592988 37.3059904,37.5031783 L31.7905325,31.9877205 L43.515388,20.2628651 L62.2930988,39.8805157 C62.621159,40.2094554 63.0512434,40.3730458 63.4813277,40.3730458 C63.9122916,40.3730458 64.3423759,40.2094554 64.6704361,39.8805157 C65.3274361,39.2243952 65.3274361,38.1592988 64.6704361,37.5031783" id="Fill-3"></path>
                <path d="M31.9633578,3.82599157 C33.8736711,3.82599157 35.4269,5.3801 35.4269,7.28953373 C35.4269,9.19984699 33.8736711,10.7539554 31.9633578,10.7539554 C30.0530446,10.7539554 28.4998157,9.19984699 28.4998157,7.28953373 C28.4998157,5.3801 30.0530446,3.82599157 31.9633578,3.82599157 M31.9633578,14.1172325 C35.7276952,14.1172325 38.7901771,11.0538711 38.7901771,7.28953373 C38.7901771,3.5260759 35.7276952,0.462714458 31.9633578,0.462714458 C28.1990205,0.462714458 25.1365386,3.5260759 25.1365386,7.28953373 C25.1365386,11.0538711 28.1990205,14.1172325 31.9633578,14.1172325" id="Fill-5"></path>
            </g>
            <mask id="mask-4" fill="white">
                <use xlink:href="#path-3"></use>
            </mask>
            <g id="Clip-8"></g>
            <path d="M37.4129398,100.529795 L106.857048,100.529795 L106.857048,48.9944337 L37.4129398,48.9944337 L37.4129398,100.529795 Z M108.538687,103.893072 L35.7321807,103.893072 C34.8025301,103.893072 34.0505422,103.139325 34.0505422,102.211434 L34.0505422,47.3127952 C34.0505422,46.3849036 34.8025301,45.6311566 35.7321807,45.6311566 L108.538687,45.6311566 C109.467458,45.6311566 110.219446,46.3849036 110.219446,47.3127952 L110.219446,102.211434 C110.219446,103.139325 109.467458,103.893072 108.538687,103.893072 L108.538687,103.893072 Z" id="Fill-7" fill="#EFEFEF" mask="url(#mask-4)"></path>
        </g>
    </g>
</svg>