<?xml version="1.0" encoding="UTF-8"?>
<svg width="145px" height="147px" viewBox="0 0 145 147" version="1.1" xmlns="http://www.w3.org/2000/svg" xmlns:xlink="http://www.w3.org/1999/xlink">
    <!-- Generator: Sketch 53.1 (72631) - https://sketchapp.com -->
    <title>Slice 1</title>
    <desc>Created with Sketch.</desc>
    <defs>
        <polygon id="path-1" points="0 0.849614458 144.270692 0.849614458 144.270692 145.120394 0 145.120394"></polygon>
    </defs>
    <g id="Page-1" stroke="none" stroke-width="1" fill="none" fill-rule="evenodd">
        <g id="交互设计" transform="translate(0.000000, 1.000000)">
            <g id="分组" transform="translate(0.000000, 0.029904)">
                <mask id="mask-2" fill="white">
                    <use xlink:href="#path-1"></use>
                </mask>
                <g id="Clip-2"></g>
                <path d="M144.270692,72.9849602 C144.270692,112.82449 111.974788,145.120394 72.1352578,145.120394 C32.2966072,145.120394 -0.000175903614,112.82449 -0.000175903614,72.9849602 C-0.000175903614,33.1463096 32.2966072,0.849526506 72.1352578,0.849526506 C111.974788,0.849526506 144.270692,33.1463096 144.270692,72.9849602" id="Fill-1" fill="#101010" mask="url(#mask-2)"></path>
            </g>
            <path d="M95.1130193,102.592529 C94.9010554,101.6963 93.9942723,101.142204 93.1085976,101.355927 L54.8495614,110.421999 L41.0235373,56.8153723 L51.8600795,52.7212157 C52.7202482,52.395794 53.1547301,51.4344807 52.8293084,50.574312 C52.5038867,49.7141434 51.5425735,49.2787819 50.6815253,49.6042036 L38.4483084,54.2260711 C38.4236819,54.2357458 38.4025735,54.2506976 38.377947,54.2612518 C38.3260554,54.2841193 38.2750434,54.3096253 38.2257904,54.3368904 C38.1791759,54.3641554 38.1325614,54.3914205 38.087706,54.4222036 C38.0428506,54.4538663 38.0015133,54.4864084 37.9610554,54.5215892 C37.9188386,54.5576494 37.8783807,54.5945892 37.8405614,54.6341675 C37.8045012,54.6711072 37.771959,54.7106855 37.7394169,54.7511434 C37.7051157,54.7942398 37.671694,54.8382157 37.6426699,54.8839506 C37.6145253,54.9279265 37.5898988,54.9727819 37.5652723,55.0193964 C37.5406458,55.0668904 37.5177783,55.1152639 37.4966699,55.1653964 C37.4773205,55.2146494 37.4606096,55.2639024 37.4465373,55.3149145 C37.430706,55.366806 37.4166337,55.4178181 37.406959,55.4714687 C37.3964048,55.5233602 37.3902482,55.5752518 37.3849711,55.6289024 C37.379694,55.684312 37.3761759,55.7397217 37.3770554,55.7951313 C37.3770554,55.8479024 37.3805735,55.8989145 37.3858506,55.950806 C37.3920072,56.0097337 37.4008024,56.0677819 37.4131157,56.1267096 C37.4183928,56.1513361 37.4183928,56.1759627 37.4245494,56.2005892 L52.0315855,112.835396 C52.0342241,112.843312 52.0386217,112.848589 52.0403807,112.856505 C52.0887542,113.032408 52.1617542,113.195999 52.2576217,113.34024 C52.2620193,113.348155 52.2690554,113.354312 52.2743325,113.362228 C52.3728386,113.505589 52.4915735,113.633119 52.6278988,113.737782 C52.6331759,113.74218 52.6393325,113.744818 52.6446096,113.748336 C52.7835735,113.852999 52.9383687,113.937433 53.1028386,113.993722 C53.1063566,113.995481 53.1098747,113.995481 53.1133928,113.99636 C53.2813807,114.053529 53.4608024,114.085192 53.6437422,114.085192 C53.7695133,114.085192 53.8996819,114.07024 54.0280916,114.040336 L93.8764169,104.59783 C94.7708867,104.384987 95.3249831,103.487878 95.1130193,102.592529" id="Fill-3" fill-opacity="0.5" fill="#F7F7F7"></path>
            <path d="M86.0137892,43.5308675 L86.0137892,55.7851928 C86.0137892,56.7051687 86.7596205,57.4501205 87.6795964,57.4501205 L102.225066,57.4501205 L102.225066,101.310807 L52.9368735,101.310807 L52.9368735,43.5308675 L86.0137892,43.5308675 Z M89.3445241,43.5308675 L89.5098735,43.5308675 L100.820476,54.1193855 L89.3445241,54.1193855 L89.3445241,43.5308675 Z M105.553163,54.6831566 C105.552283,54.6207108 105.542608,54.5591446 105.533813,54.4958193 C105.527657,54.4492048 105.526777,54.4017108 105.516223,54.3559759 C105.504789,54.3023253 105.48456,54.2495542 105.46697,54.1967831 C105.451139,54.1466506 105.437946,54.0956386 105.417717,54.0481446 C105.396608,54.0006506 105.368464,53.9566747 105.343837,53.9118193 C105.315693,53.8625663 105.291946,53.8115542 105.260283,53.7658193 C105.233898,53.7271205 105.199596,53.6928193 105.169693,53.6558795 C105.130114,53.6083855 105.091416,53.5591325 105.04744,53.5160361 C105.040404,53.509 105.036006,53.5010843 105.02897,53.4949277 L91.3067289,40.6495663 C91.2759458,40.6214217 91.2416446,40.6011928 91.2108614,40.5765663 C91.164247,40.538747 91.1193916,40.5000482 91.0683795,40.467506 C91.0217651,40.4367229 90.9733916,40.4138554 90.9241386,40.3892289 C90.8766446,40.3646024 90.8309096,40.3390964 90.7807771,40.319747 C90.7253675,40.297759 90.6690783,40.2828072 90.6127892,40.2669759 C90.5652952,40.2537831 90.5186807,40.2388313 90.4703072,40.2300361 C90.4043434,40.2177229 90.3375,40.2142048 90.2715361,40.2098072 C90.2363554,40.2080482 90.2038133,40.199253 90.167753,40.199253 L51.2710663,40.199253 C50.3510904,40.199253 49.605259,40.9450843 49.605259,41.8650602 L49.605259,102.976614 C49.605259,103.89659 50.3510904,104.642422 51.2710663,104.642422 L103.889994,104.642422 C104.80997,104.642422 105.555801,103.89659 105.555801,102.976614 L105.555801,54.7104217 C105.555801,54.7016265 105.553163,54.6928313 105.553163,54.6831566 L105.553163,54.6831566 Z" id="Fill-5" fill="#EFEFEF"></path>
            <path d="M65.8054542,87.7244518 C67.305912,87.7244518 68.5275627,88.9452229 68.5275627,90.4456807 C68.5275627,91.9461386 67.305912,93.1660301 65.8054542,93.1660301 C64.3058759,93.1660301 63.0851048,91.9461386 63.0851048,90.4456807 C63.0851048,88.9452229 64.3058759,87.7244518 65.8054542,87.7244518 M65.8054542,96.4985241 C68.5653819,96.4985241 70.8934663,94.6401024 71.6199482,92.111488 L82.6315145,92.111488 C88.0625386,92.111488 92.4812373,87.6927892 92.4812373,82.2626446 L92.4812373,70.5026084 L95.796141,74.0778494 C96.1250807,74.4314157 96.5701169,74.6108373 97.0177916,74.6108373 C97.4232494,74.6108373 97.8295867,74.4639578 98.1497313,74.1666807 C98.8252012,73.5413434 98.8647795,72.4876807 98.2394422,71.8130904 L92.0370807,65.1234759 C92.0291651,65.1155602 92.0212494,65.1102831 92.0133337,65.1023675 C91.9983819,65.0874157 91.9843096,65.0724639 91.9684783,65.0583916 C91.9614422,65.0504759 91.9552855,65.0416807 91.9482494,65.0346446 C91.9218639,65.0100181 91.8919602,64.9933072 91.8646952,64.9713193 C91.830394,64.9431747 91.7987313,64.9123916 91.7635506,64.8886446 C91.7459602,64.8763313 91.7283699,64.8666566 91.7107795,64.8552229 C91.6703217,64.8297169 91.6289843,64.809488 91.5867675,64.7875 C91.5515867,64.7681506 91.5172855,64.7470422 91.4812253,64.7303313 C91.4618759,64.7224157 91.441647,64.716259 91.4222976,64.7083434 C91.3765627,64.690753 91.3308277,64.6775602 91.2850928,64.6643675 C91.248153,64.6538133 91.2120928,64.6388614 91.173394,64.6309458 C91.1531651,64.6265482 91.1320566,64.6239096 91.1109482,64.619512 C91.0652133,64.6115964 91.0185988,64.6080783 90.9719843,64.6036807 C90.928888,64.6001627 90.8884301,64.594006 90.8462133,64.5931265 C90.835659,64.5931265 90.8251048,64.590488 90.8154301,64.590488 C90.8048759,64.590488 90.7952012,64.5931265 90.784647,64.5931265 C90.7424301,64.594006 90.7002133,64.6001627 90.6562373,64.6036807 C90.6096229,64.6089578 90.563888,64.6115964 90.5190325,64.619512 C90.4979241,64.6239096 90.4776952,64.6265482 90.4574663,64.6309458 C90.4187675,64.6388614 90.3818277,64.6538133 90.344888,64.6643675 C90.299153,64.6775602 90.2525386,64.690753 90.2076831,64.7083434 C90.1883337,64.716259 90.1681048,64.7224157 90.1496349,64.7303313 C90.1135747,64.7461627 90.080153,64.7681506 90.0449723,64.7866205 C90.0027554,64.8086084 89.9605386,64.8288373 89.9200807,64.8552229 C89.9016108,64.8666566 89.8840205,64.8763313 89.8664301,64.8886446 C89.8312494,64.9132711 89.7995867,64.9440542 89.7661651,64.9713193 C89.7389,64.9933072 89.7089964,65.0100181 89.6826108,65.0346446 C89.6755747,65.0408012 89.6702976,65.0495964 89.6632614,65.057512 C89.6474301,65.0715843 89.6324783,65.0865361 89.6175265,65.1023675 C89.6096108,65.1102831 89.6008157,65.1155602 89.5937795,65.1234759 L83.3905386,71.8130904 C82.7652012,72.4876807 82.8047795,73.5413434 83.4793699,74.1666807 C83.800394,74.4639578 84.2058518,74.6108373 84.6121892,74.6108373 C85.0598639,74.6108373 85.5049,74.4314157 85.8329602,74.0778494 L89.1496229,70.5017289 L89.1496229,82.2626446 C89.1496229,85.8554759 86.2261048,88.7798735 82.6315145,88.7798735 L71.6199482,88.7798735 C70.8934663,86.251259 68.5653819,84.3928373 65.8054542,84.3928373 C62.4685627,84.3928373 59.7534904,87.1079096 59.7534904,90.4456807 C59.7534904,93.7834518 62.4685627,96.4985241 65.8054542,96.4985241" id="Fill-7" fill="#EFEFEF"></path>
        </g>
    </g>
</svg>