<?xml version="1.0" encoding="UTF-8"?>
<svg width="145px" height="147px" viewBox="0 0 145 147" version="1.1" xmlns="http://www.w3.org/2000/svg" xmlns:xlink="http://www.w3.org/1999/xlink">
    <!-- Generator: Sketch 53.1 (72631) - https://sketchapp.com -->
    <title>Slice 1</title>
    <desc>Created with Sketch.</desc>
    <defs>
        <polygon id="path-1" points="0 0.849614458 144.270867 0.849614458 144.270867 145.120394 0 145.120394"></polygon>
    </defs>
    <g id="Page-1" stroke="none" stroke-width="1" fill="none" fill-rule="evenodd">
        <g id="图标设计">
            <g id="分组" transform="translate(0.000000, 0.029904)">
                <mask id="mask-2" fill="white">
                    <use xlink:href="#path-1"></use>
                </mask>
                <g id="Clip-2"></g>
                <path d="M144.270867,72.9849602 C144.270867,112.82449 111.974084,145.120394 72.1354337,145.120394 C32.2967831,145.120394 0,112.82449 0,72.9849602 C0,33.1463096 32.2967831,0.849526506 72.1354337,0.849526506 C111.974084,0.849526506 144.270867,33.1463096 144.270867,72.9849602" id="Fill-1" fill="#101010" mask="url(#mask-2)"></path>
            </g>
            <path d="M61.7733036,37.8972904 C60.8014361,37.8972904 60.0142675,38.6853386 60.0142675,39.6563265 L60.0142675,52.4815795 C60.0142675,53.453447 60.8014361,54.2406157 61.7733036,54.2406157 C62.7442916,54.2406157 63.5323398,53.453447 63.5323398,52.4815795 L63.5323398,41.4153627 L106.65687,41.4153627 L106.65687,85.643688 L92.5035446,85.643688 C91.5325566,85.643688 90.7445084,86.4308566 90.7445084,87.4027241 C90.7445084,88.373712 91.5325566,89.1617602 92.5035446,89.1617602 L108.415906,89.1617602 C109.386894,89.1617602 110.174942,88.373712 110.174942,87.4027241 L110.174942,39.6563265 C110.174942,38.6853386 109.386894,37.8972904 108.415906,37.8972904 L61.7733036,37.8972904 Z" id="Fill-3" fill="#F2F5F7"></path>
            <path d="M86.4872337,69.1029434 C85.1468482,69.1029434 84.0553663,68.012341 84.0553663,66.6719554 C84.0553663,65.3315699 85.1468482,64.2409675 86.4872337,64.2409675 C87.8276193,64.2409675 88.9191012,65.3315699 88.9191012,66.6719554 C88.9191012,68.012341 87.8276193,69.1029434 86.4872337,69.1029434 M80.7439807,87.4021964 C80.7439807,97.8631843 72.2328843,106.373401 61.7718964,106.373401 C51.311788,106.373401 42.8015711,97.8631843 42.8015711,87.4021964 C42.8015711,78.9667386 48.4322458,71.5559193 56.398041,69.205847 C57.3523181,71.2208229 59.3989566,72.6210157 61.7718964,72.6210157 C64.1465952,72.6210157 66.1941133,71.2208229 67.1475108,69.205847 C75.113306,71.5559193 80.7439807,78.9667386 80.7439807,87.4021964 M38.2852458,69.1029434 C36.9448602,69.1029434 35.8542578,68.012341 35.8542578,66.6719554 C35.8542578,65.3315699 36.9448602,64.2409675 38.2852458,64.2409675 C39.6265108,64.2409675 40.7171133,65.3315699 40.7171133,66.6719554 C40.7171133,68.012341 39.6265108,69.1029434 38.2852458,69.1029434 M61.7718964,64.2409675 C63.1131614,64.2409675 64.2037639,65.3315699 64.2037639,66.6719554 C64.2037639,68.012341 63.1131614,69.1029434 61.7718964,69.1029434 C60.4323904,69.1029434 59.341788,68.012341 59.341788,66.6719554 C59.341788,65.3315699 60.4323904,64.2409675 61.7718964,64.2409675 M86.4872337,60.7228952 C83.8187759,60.7228952 81.5557759,62.488088 80.803788,64.9129193 L67.4562217,64.9129193 C66.7051133,62.488088 64.4421133,60.7228952 61.7718964,60.7228952 C59.1043181,60.7228952 56.8413181,62.488088 56.0893301,64.9129193 L43.9695711,64.9129193 C43.2184627,62.488088 40.9545831,60.7228952 38.2852458,60.7228952 C35.0046434,60.7228952 32.3361855,63.391353 32.3361855,66.6719554 C32.3361855,69.9525578 35.0046434,72.6210157 38.2852458,72.6210157 C40.9545831,72.6210157 43.2184627,70.8549434 43.9695711,68.4309916 L49.7260169,68.4309916 C43.3978843,72.4723771 39.2834988,79.5595337 39.2834988,87.4021964 C39.2834988,99.8025217 49.3724506,109.891473 61.7718964,109.891473 C74.1731012,109.891473 84.262053,99.8025217 84.262053,87.4021964 C84.262053,79.5595337 80.148547,72.4723771 73.8204145,68.4309916 L80.803788,68.4309916 C81.5557759,70.8549434 83.8187759,72.6210157 86.4872337,72.6210157 C89.7678361,72.6210157 92.4371735,69.9525578 92.4371735,66.6719554 C92.4371735,63.391353 89.7678361,60.7228952 86.4872337,60.7228952" id="Fill-5" fill-opacity="0.5" fill="#EFEFEF"></path>
        </g>
    </g>
</svg>