<?xml version="1.0" encoding="utf-8"?>
<!-- Generator: Adobe Illustrator 23.0.1, SVG Export Plug-In . SVG Version: 6.00 Build 0)  -->
<svg version="1.0" id="图层_1" xmlns="http://www.w3.org/2000/svg" xmlns:xlink="http://www.w3.org/1999/xlink" x="0px" y="0px"
	 viewBox="0 0 954 326" style="enable-background:new 0 0 954 326;" xml:space="preserve">
<style type="text/css">
	.st0{fill:#1585FF;}
	.st1{fill:#FFFFFF;}
	.st2{fill:#101010;}
</style>
<rect x="46.6" y="7.5" class="st0" width="459" height="312"/>
<g>
	<g>
		<g>
			<path class="st1" d="M133.2,120.7c-3.7,0-7.1-0.3-10-1c-2.9-0.6-5.4-1.4-7.6-2.4l2.3-10.5h1.2c2,1.8,4.4,3.3,7.1,4.3
				c2.7,1,5.6,1.5,8.8,1.5c3.2,0,5.6-0.4,7.1-1.3c1.5-0.9,2.3-2.1,2.3-3.7c0-0.6-0.1-1.1-0.4-1.6c-0.2-0.4-0.7-0.9-1.4-1.3
				c-0.7-0.4-1.7-0.9-2.9-1.3c-1.2-0.4-2.8-0.9-4.7-1.5c-2.1-0.6-4-1.2-5.7-1.9c-1.7-0.7-3.1-1.5-4.3-2.4c-1.2-1-2.1-2.1-2.7-3.3
				c-0.6-1.2-0.9-2.7-0.9-4.5c0-4.4,1.9-7.9,5.8-10.5c3.9-2.6,9.1-3.9,15.8-3.9c3.2,0,6.3,0.3,9.1,0.8c2.9,0.5,5.3,1.2,7.3,2.1
				l-2.1,10h-1.2c-1.5-1.4-3.5-2.6-6-3.5c-2.5-0.9-5.2-1.4-8.2-1.4c-2.9,0-5.1,0.4-6.7,1.3c-1.6,0.8-2.4,2-2.4,3.5
				c0,0.7,0.1,1.2,0.4,1.7c0.2,0.4,0.7,0.9,1.4,1.3c0.6,0.4,1.6,0.8,3,1.3c1.3,0.5,2.9,0.9,4.7,1.4c4.9,1.3,8.4,2.8,10.5,4.6
				c2.1,1.8,3.1,4.1,3.1,7.1c0,2.5-0.6,4.7-1.7,6.7c-1.1,1.9-2.7,3.5-4.7,4.7c-2.1,1.3-4.5,2.2-7.1,2.8
				C139.6,120.4,136.6,120.7,133.2,120.7z"/>
		</g>
		<g>
			<path class="st1" d="M214.7,92.5c0,3.6-0.6,7.1-1.8,10.5c-1.2,3.5-3,6.5-5.3,9.1c-2.5,2.8-5.5,5-8.8,6.5
				c-3.4,1.5-7.2,2.2-11.6,2.2c-6,0-10.6-1.5-14-4.6s-5.1-7.3-5.1-12.7c0-3.8,0.6-7.4,1.9-10.8c1.3-3.4,3.1-6.4,5.5-9
				c2.3-2.5,5.2-4.5,8.7-6c3.5-1.5,7.2-2.3,11.3-2.3c6,0,10.6,1.5,14,4.6C213,83.1,214.7,87.2,214.7,92.5z M198.6,107.4
				c1.3-1.7,2.4-3.8,3.1-6c0.8-2.3,1.1-4.9,1.1-7.9c0-3.1-0.7-5.6-2.2-7.3c-1.5-1.8-3.6-2.7-6.4-2.7c-1.8,0-3.5,0.4-5.2,1.2
				c-1.7,0.8-3.2,2.1-4.6,3.8c-1.3,1.6-2.4,3.6-3.3,6c-0.8,2.4-1.2,5.1-1.2,8.1c0,3.3,0.8,5.9,2.3,7.6c1.5,1.7,3.7,2.5,6.4,2.5
				c1.9,0,3.7-0.5,5.4-1.4C195.8,110.4,197.3,109.1,198.6,107.4z"/>
		</g>
		<g>
			<path class="st1" d="M262.1,119.9h-9.6l-12.8-30.2l-7,30.2h-10.4l10.1-43.6H245l11,25.3l5.8-25.3h10.4L262.1,119.9z"/>
		</g>
		<g>
			<path class="st1" d="M299.1,120.8c-6.2,0-11-1.5-14.5-4.4s-5.3-7.1-5.3-12.5c0-8.4,2.7-15.2,8.1-20.6s12.3-8,20.6-8
				c3.1,0,6.1,0.3,8.7,0.8c2.7,0.5,5.5,1.6,8.4,3.1l-2.5,10.2h-1.3c-2.3-2.2-4.6-3.8-6.7-4.6c-2.1-0.9-4.4-1.3-6.9-1.3
				c-2.6,0-4.9,0.5-6.9,1.6c-2.1,1-3.8,2.5-5.3,4.2c-1.4,1.7-2.5,3.7-3.3,6c-0.8,2.3-1.2,4.7-1.2,7.2c0,3.5,1,6.1,2.9,7.7
				c1.9,1.6,5,2.5,9.4,2.5c0.4,0,0.9,0,1.4,0c0.5,0,1,0,1.4-0.1l2-8.5h-8.7l1.9-8.2h20.1l-5,21.5c-2.6,0.9-5.4,1.7-8.3,2.4
				S302.3,120.8,299.1,120.8z"/>
		</g>
	</g>
	<g>
		<g>
			<path class="st1" d="M149.2,170.8c-1.2,5.1-3.4,8.9-6.7,11.4s-7.8,3.7-13.5,3.7c-2.1,0-4-0.1-5.7-0.2s-3.2-0.4-4.5-0.6l2.1-9h1.1
				c0.8,0.3,1.7,0.7,2.7,1c0.9,0.3,2.2,0.5,3.8,0.5c3,0,5.2-0.7,6.7-2.1c1.5-1.4,2.7-4.2,3.6-8.3l4-17.4h-10l1.8-8.1H156
				L149.2,170.8z"/>
		</g>
		<g>
			<path class="st1" d="M199.2,185.2h-25.5l1.8-7.7h7.1l6.5-28.2h-7.1l1.8-7.7h25.5l-1.8,7.7h-7.1l-6.5,28.2h7.1L199.2,185.2z"/>
		</g>
		<g>
			<path class="st1" d="M265.1,185.2h-11.4l-1-8.9h-16l-5.1,8.9h-11.8l26.2-43.6h13L265.1,185.2z M251.9,168.4l-1.8-15.6l-8.9,15.6
				H251.9z"/>
		</g>
		<g>
			<path class="st1" d="M317.1,185.2h-9.6L294.7,155l-7,30.2h-10.4l10.1-43.6H300l11,25.3l5.8-25.3h10.4L317.1,185.2z"/>
		</g>
	</g>
	<g>
		<g>
			<path class="st1" d="M160.9,224.2c0,4.9-1.3,9.5-3.9,13.7c-2.6,4.2-5.9,7.4-10,9.6c-2.5,1.3-5,2.2-7.7,2.7
				c-2.7,0.4-5.9,0.7-9.6,0.7H114l10.1-43.6h14.1c4.2,0,7.5,0.3,10.1,1c2.5,0.6,4.6,1.5,6.2,2.6c2.1,1.5,3.8,3.3,4.9,5.6
				C160.4,218.5,160.9,221.1,160.9,224.2z M149.2,225.2c0-2-0.4-3.7-1.1-5.1c-0.7-1.4-1.9-2.6-3.4-3.5c-0.7-0.4-1.4-0.7-2.2-0.9
				s-1.6-0.4-2.5-0.5c-0.9-0.1-1.9-0.1-3.1-0.1s-2.2,0-3,0h-0.4l-6.4,27.7h1c1.1,0,2.3,0,3.6,0c1.3,0,2.3,0,3.1-0.1
				c1-0.1,2-0.3,2.8-0.5s1.7-0.6,2.7-1.1c2.8-1.4,5-3.6,6.5-6.5C148.4,231.7,149.2,228.6,149.2,225.2z"/>
		</g>
		<g>
			<path class="st1" d="M212.3,207.2l-1.9,8.3H190l-1.8,7.8h18.9l-1.9,8.3h-18.9l-2.5,11h20.3l-1.9,8.3h-31.6l10.1-43.6H212.3z"/>
		</g>
		<g>
			<path class="st1" d="M240.3,251.6c-3.7,0-7.1-0.3-10-1c-2.9-0.6-5.4-1.4-7.6-2.4l2.3-10.5h1.2c2,1.8,4.4,3.3,7.1,4.3
				c2.7,1,5.6,1.5,8.8,1.5c3.2,0,5.6-0.4,7.1-1.3c1.5-0.9,2.3-2.1,2.3-3.7c0-0.6-0.1-1.1-0.4-1.6c-0.2-0.4-0.7-0.9-1.4-1.3
				s-1.7-0.9-2.9-1.3c-1.2-0.4-2.8-0.9-4.7-1.5c-2.1-0.6-4-1.2-5.7-1.9c-1.7-0.7-3.1-1.5-4.3-2.4c-1.2-1-2.1-2.1-2.7-3.3
				s-0.9-2.7-0.9-4.5c0-4.4,1.9-7.9,5.8-10.5c3.9-2.6,9.1-3.9,15.8-3.9c3.2,0,6.3,0.3,9.1,0.8c2.9,0.5,5.3,1.2,7.3,2.1l-2.1,10H263
				c-1.5-1.4-3.5-2.6-6-3.5c-2.5-0.9-5.2-1.4-8.2-1.4c-2.9,0-5.1,0.4-6.7,1.3c-1.6,0.8-2.4,2-2.4,3.5c0,0.7,0.1,1.2,0.4,1.7
				s0.7,0.9,1.4,1.3c0.6,0.4,1.6,0.8,3,1.3s2.9,0.9,4.7,1.4c4.9,1.3,8.4,2.8,10.5,4.6c2.1,1.8,3.1,4.1,3.1,7.1
				c0,2.5-0.6,4.7-1.7,6.7c-1.1,1.9-2.7,3.5-4.7,4.7c-2.1,1.3-4.5,2.2-7.1,2.8C246.7,251.3,243.7,251.6,240.3,251.6z"/>
		</g>
		<g>
			<path class="st1" d="M310,250.8h-25.5l1.8-7.7h7.1l6.5-28.2h-7.1l1.8-7.7h25.5l-1.8,7.7h-7.1l-6.5,28.2h7.1L310,250.8z"/>
		</g>
		<g>
			<path class="st1" d="M352.3,251.7c-6.2,0-11-1.5-14.5-4.4s-5.3-7.1-5.3-12.5c0-8.4,2.7-15.2,8.1-20.6s12.3-8,20.6-8
				c3.1,0,6.1,0.3,8.7,0.8s5.5,1.6,8.4,3.1l-2.5,10.2h-1.3c-2.3-2.2-4.6-3.8-6.7-4.6s-4.4-1.3-6.9-1.3c-2.6,0-4.9,0.5-6.9,1.6
				c-2.1,1-3.8,2.5-5.3,4.2c-1.4,1.7-2.5,3.7-3.3,6s-1.2,4.7-1.2,7.2c0,3.5,1,6.1,2.9,7.7c1.9,1.6,5,2.5,9.4,2.5c0.4,0,0.9,0,1.4,0
				c0.5,0,1,0,1.4-0.1l2-8.5h-8.7l1.9-8.2h20.1l-5,21.5c-2.6,0.9-5.4,1.7-8.3,2.4S355.4,251.7,352.3,251.7z"/>
		</g>
		<g>
			<path class="st1" d="M428.3,250.8h-9.6l-12.8-30.2l-7,30.2h-10.4l10.1-43.6h12.6l11,25.3l5.8-25.3h10.4L428.3,250.8z"/>
		</g>
	</g>
</g>
<g>
	<g>
		<g>
			<path class="st2" d="M594.2,118.7c-3.7,0-7.1-0.3-10-1c-2.9-0.6-5.4-1.4-7.6-2.4l2.3-10.5h1.2c2,1.8,4.4,3.3,7.1,4.3
				c2.7,1,5.6,1.5,8.8,1.5c3.2,0,5.6-0.4,7.1-1.3c1.5-0.9,2.3-2.1,2.3-3.7c0-0.6-0.1-1.1-0.4-1.6c-0.2-0.4-0.7-0.9-1.4-1.3
				c-0.7-0.4-1.7-0.9-2.9-1.3c-1.2-0.4-2.8-0.9-4.7-1.5c-2.1-0.6-4-1.2-5.7-1.9c-1.7-0.7-3.1-1.5-4.3-2.4c-1.2-1-2.1-2.1-2.7-3.3
				c-0.6-1.2-0.9-2.7-0.9-4.5c0-4.4,1.9-7.9,5.8-10.5c3.9-2.6,9.1-3.9,15.8-3.9c3.2,0,6.3,0.3,9.1,0.8c2.9,0.5,5.3,1.2,7.3,2.1
				l-2.1,10h-1.2c-1.5-1.4-3.5-2.6-6-3.5c-2.5-0.9-5.2-1.4-8.2-1.4c-2.9,0-5.1,0.4-6.7,1.3c-1.6,0.8-2.4,2-2.4,3.5
				c0,0.7,0.1,1.2,0.4,1.7c0.2,0.4,0.7,0.9,1.4,1.3c0.6,0.4,1.6,0.8,3,1.3c1.3,0.5,2.9,0.9,4.7,1.4c4.9,1.3,8.4,2.8,10.5,4.6
				c2.1,1.8,3.1,4.1,3.1,7.1c0,2.5-0.6,4.7-1.7,6.7c-1.1,1.9-2.7,3.5-4.7,4.7c-2.1,1.3-4.5,2.2-7.1,2.8
				C600.6,118.4,597.6,118.7,594.2,118.7z"/>
		</g>
		<g>
			<path class="st2" d="M675.7,90.5c0,3.6-0.6,7.1-1.8,10.5c-1.2,3.5-3,6.5-5.3,9.1c-2.5,2.8-5.5,5-8.8,6.5
				c-3.4,1.5-7.2,2.2-11.6,2.2c-6,0-10.6-1.5-14-4.6s-5.1-7.3-5.1-12.7c0-3.8,0.6-7.4,1.9-10.8c1.3-3.4,3.1-6.4,5.5-9
				c2.3-2.5,5.2-4.5,8.7-6c3.5-1.5,7.2-2.3,11.3-2.3c6,0,10.6,1.5,14,4.6C674,81.1,675.7,85.2,675.7,90.5z M659.6,105.4
				c1.3-1.7,2.4-3.8,3.1-6c0.8-2.3,1.1-4.9,1.1-7.9c0-3.1-0.7-5.6-2.2-7.3c-1.5-1.8-3.6-2.7-6.4-2.7c-1.8,0-3.5,0.4-5.2,1.2
				c-1.7,0.8-3.2,2.1-4.6,3.8c-1.3,1.6-2.4,3.6-3.3,6c-0.8,2.4-1.2,5.1-1.2,8.1c0,3.3,0.8,5.9,2.3,7.6c1.5,1.7,3.7,2.5,6.4,2.5
				c1.9,0,3.7-0.5,5.4-1.4C656.8,108.4,658.3,107.1,659.6,105.4z"/>
		</g>
		<g>
			<path class="st2" d="M723.1,117.9h-9.6l-12.8-30.2l-7,30.2h-10.4l10.1-43.6H706l11,25.3l5.8-25.3h10.4L723.1,117.9z"/>
		</g>
		<g>
			<path class="st2" d="M760.1,118.8c-6.2,0-11-1.5-14.5-4.4s-5.3-7.1-5.3-12.5c0-8.4,2.7-15.2,8.1-20.6s12.3-8,20.6-8
				c3.1,0,6.1,0.3,8.7,0.8c2.7,0.5,5.5,1.6,8.4,3.1l-2.5,10.2h-1.3c-2.3-2.2-4.6-3.8-6.7-4.6c-2.1-0.9-4.4-1.3-6.9-1.3
				c-2.6,0-4.9,0.5-6.9,1.6c-2.1,1-3.8,2.5-5.3,4.2c-1.4,1.7-2.5,3.7-3.3,6c-0.8,2.3-1.2,4.7-1.2,7.2c0,3.5,1,6.1,2.9,7.7
				c1.9,1.6,5,2.5,9.4,2.5c0.4,0,0.9,0,1.4,0c0.5,0,1,0,1.4-0.1l2-8.5h-8.7l1.9-8.2h20.1l-5,21.5c-2.6,0.9-5.4,1.7-8.3,2.4
				S763.3,118.8,760.1,118.8z"/>
		</g>
	</g>
	<g>
		<g>
			<path class="st2" d="M610.2,168.8c-1.2,5.1-3.4,8.9-6.7,11.4s-7.8,3.7-13.5,3.7c-2.1,0-4-0.1-5.7-0.2s-3.2-0.4-4.5-0.6l2.1-9h1.1
				c0.8,0.3,1.7,0.7,2.7,1c0.9,0.3,2.2,0.5,3.8,0.5c3,0,5.2-0.7,6.7-2.1c1.5-1.4,2.7-4.2,3.6-8.3l4-17.4h-10l1.8-8.1H617
				L610.2,168.8z"/>
		</g>
		<g>
			<path class="st2" d="M660.2,183.2h-25.5l1.8-7.7h7.1l6.5-28.2h-7.1l1.8-7.7h25.5l-1.8,7.7h-7.1l-6.5,28.2h7.1L660.2,183.2z"/>
		</g>
		<g>
			<path class="st2" d="M726.1,183.2h-11.4l-1-8.9h-16l-5.1,8.9h-11.8l26.2-43.6h13L726.1,183.2z M712.9,166.4l-1.8-15.6l-8.9,15.6
				H712.9z"/>
		</g>
		<g>
			<path class="st2" d="M778.1,183.2h-9.6L755.7,153l-7,30.2h-10.4l10.1-43.6H761l11,25.3l5.8-25.3h10.4L778.1,183.2z"/>
		</g>
	</g>
	<g>
		<g>
			<path class="st2" d="M621.9,222.2c0,4.9-1.3,9.5-3.9,13.7c-2.6,4.2-5.9,7.4-10,9.6c-2.5,1.3-5,2.2-7.7,2.7
				c-2.7,0.4-5.9,0.7-9.6,0.7H575l10.1-43.6h14.1c4.2,0,7.5,0.3,10.1,1c2.5,0.6,4.6,1.5,6.2,2.6c2.1,1.5,3.8,3.3,4.9,5.6
				C621.4,216.5,621.9,219.1,621.9,222.2z M610.2,223.2c0-2-0.4-3.7-1.1-5.1c-0.7-1.4-1.9-2.6-3.4-3.5c-0.7-0.4-1.4-0.7-2.2-0.9
				s-1.6-0.4-2.5-0.5c-0.9-0.1-1.9-0.1-3.1-0.1s-2.2,0-3,0h-0.4l-6.4,27.7h1c1.1,0,2.3,0,3.6,0c1.3,0,2.3,0,3.1-0.1
				c1-0.1,2-0.3,2.8-0.5s1.7-0.6,2.7-1.1c2.8-1.4,5-3.6,6.5-6.5C609.4,229.7,610.2,226.6,610.2,223.2z"/>
		</g>
		<g>
			<path class="st2" d="M673.3,205.2l-1.9,8.3H651l-1.8,7.8h18.9l-1.9,8.3h-18.9l-2.5,11h20.3l-1.9,8.3h-31.6l10.1-43.6H673.3z"/>
		</g>
		<g>
			<path class="st2" d="M701.3,249.6c-3.7,0-7.1-0.3-10-1c-2.9-0.6-5.4-1.4-7.6-2.4l2.3-10.5h1.2c2,1.8,4.4,3.3,7.1,4.3
				c2.7,1,5.6,1.5,8.8,1.5c3.2,0,5.6-0.4,7.1-1.3c1.5-0.9,2.3-2.1,2.3-3.7c0-0.6-0.1-1.1-0.4-1.6c-0.2-0.4-0.7-0.9-1.4-1.3
				s-1.7-0.9-2.9-1.3c-1.2-0.4-2.8-0.9-4.7-1.5c-2.1-0.6-4-1.2-5.7-1.9c-1.7-0.7-3.1-1.5-4.3-2.4c-1.2-1-2.1-2.1-2.7-3.3
				s-0.9-2.7-0.9-4.5c0-4.4,1.9-7.9,5.8-10.5c3.9-2.6,9.1-3.9,15.8-3.9c3.2,0,6.3,0.3,9.1,0.8c2.9,0.5,5.3,1.2,7.3,2.1l-2.1,10H724
				c-1.5-1.4-3.5-2.6-6-3.5c-2.5-0.9-5.2-1.4-8.2-1.4c-2.9,0-5.1,0.4-6.7,1.3c-1.6,0.8-2.4,2-2.4,3.5c0,0.7,0.1,1.2,0.4,1.7
				s0.7,0.9,1.4,1.3c0.6,0.4,1.6,0.8,3,1.3s2.9,0.9,4.7,1.4c4.9,1.3,8.4,2.8,10.5,4.6c2.1,1.8,3.1,4.1,3.1,7.1
				c0,2.5-0.6,4.7-1.7,6.7c-1.1,1.9-2.7,3.5-4.7,4.7c-2.1,1.3-4.5,2.2-7.1,2.8C707.7,249.3,704.7,249.6,701.3,249.6z"/>
		</g>
		<g>
			<path class="st2" d="M771,248.8h-25.5l1.8-7.7h7.1l6.5-28.2h-7.1l1.8-7.7h25.5l-1.8,7.7h-7.1l-6.5,28.2h7.1L771,248.8z"/>
		</g>
		<g>
			<path class="st2" d="M813.3,249.7c-6.2,0-11-1.5-14.5-4.4s-5.3-7.1-5.3-12.5c0-8.4,2.7-15.2,8.1-20.6s12.3-8,20.6-8
				c3.1,0,6.1,0.3,8.7,0.8s5.5,1.6,8.4,3.1l-2.5,10.2h-1.3c-2.3-2.2-4.6-3.8-6.7-4.6s-4.4-1.3-6.9-1.3c-2.6,0-4.9,0.5-6.9,1.6
				c-2.1,1-3.8,2.5-5.3,4.2c-1.4,1.7-2.5,3.7-3.3,6s-1.2,4.7-1.2,7.2c0,3.5,1,6.1,2.9,7.7c1.9,1.6,5,2.5,9.4,2.5c0.4,0,0.9,0,1.4,0
				c0.5,0,1,0,1.4-0.1l2-8.5h-8.7l1.9-8.2h20.1l-5,21.5c-2.6,0.9-5.4,1.7-8.3,2.4S816.4,249.7,813.3,249.7z"/>
		</g>
		<g>
			<path class="st2" d="M889.3,248.8h-9.6l-12.8-30.2l-7,30.2h-10.4l10.1-43.6h12.6l11,25.3l5.8-25.3h10.4L889.3,248.8z"/>
		</g>
	</g>
</g>
</svg>
