<?xml version="1.0" encoding="UTF-8"?>
<svg width="145px" height="147px" viewBox="0 0 145 147" version="1.1" xmlns="http://www.w3.org/2000/svg" xmlns:xlink="http://www.w3.org/1999/xlink">
    <!-- Generator: Sketch 53.1 (72631) - https://sketchapp.com -->
    <title>Slice 1</title>
    <desc>Created with Sketch.</desc>
    <defs>
        <polygon id="path-1" points="0 0.849614458 144.270692 0.849614458 144.270692 145.120394 0 145.120394"></polygon>
    </defs>
    <g id="Page-1" stroke="none" stroke-width="1" fill="none" fill-rule="evenodd">
        <g id="界面设计">
            <g id="分组" transform="translate(0.000000, 0.029904)">
                <mask id="mask-2" fill="white">
                    <use xlink:href="#path-1"></use>
                </mask>
                <g id="Clip-2"></g>
                <path d="M144.270692,72.9849602 C144.270692,112.82449 111.973908,145.120394 72.1352578,145.120394 C32.2966072,145.120394 -0.000175903614,112.82449 -0.000175903614,72.9849602 C-0.000175903614,33.1463096 32.2966072,0.849526506 72.1352578,0.849526506 C111.973908,0.849526506 144.270692,33.1463096 144.270692,72.9849602" id="Fill-1" fill="#101010" mask="url(#mask-2)"></path>
            </g>
            <g id="分组" transform="translate(80.915663, 60.716651)" fill="#F7F7F7">
                <path d="M4.33954217,36.3100241 L26.2659277,36.3100241 L26.2659277,3.74146988 L4.33954217,3.74146988 L4.33954217,36.3100241 Z M28.0249639,0.22339759 L2.58050602,0.22339759 C1.60951807,0.22339759 0.82146988,1.01144578 0.82146988,1.98243373 L0.82146988,38.0699398 C0.82146988,39.0409277 1.60951807,39.8289759 2.58050602,39.8289759 L28.0249639,39.8289759 C28.9959518,39.8289759 29.784,39.0409277 29.784,38.0699398 L29.784,1.98243373 C29.784,1.01144578 28.9959518,0.22339759 28.0249639,0.22339759 L28.0249639,0.22339759 Z" id="Fill-3"></path>
                <path d="M19.0777145,29.8632446 L11.510341,29.8632446 C10.539353,29.8632446 9.75130482,30.6512928 9.75130482,31.6222807 C9.75130482,32.5932687 10.539353,33.3813169 11.510341,33.3813169 L19.0777145,33.3813169 C20.0487024,33.3813169 20.8367506,32.5932687 20.8367506,31.6222807 C20.8367506,30.6512928 20.0487024,29.8632446 19.0777145,29.8632446" id="Fill-5"></path>
            </g>
            <path d="M92.4263554,45.1592952 L38.8478735,45.1592952 C37.8768855,45.1592952 37.0888373,45.9473434 37.0888373,46.9183313 L37.0888373,89.0437289 C37.0888373,90.0147169 37.8768855,90.8027651 38.8478735,90.8027651 L56.0318976,90.8027651 L56.1119337,97.0051265 L53.0731988,97.0051265 C52.1013313,97.0051265 51.3141627,97.7922952 51.3141627,98.7641627 C51.3141627,99.7351506 52.1013313,100.523199 53.0731988,100.523199 L57.8929578,100.523199 L57.9158253,100.523199 L76.7190422,100.523199 C77.6900301,100.523199 78.4780783,99.7351506 78.4780783,98.7641627 C78.4780783,97.7922952 77.6900301,97.0051265 76.7190422,97.0051265 L74.0628976,97.0051265 L74.0628976,95.1862831 C74.0628976,94.2152952 73.2757289,93.427247 72.3038614,93.427247 C71.3328735,93.427247 70.5448253,94.2152952 70.5448253,95.1862831 L70.5448253,97.0051265 L59.630006,97.0051265 L59.5508494,90.8027651 L81.7375723,90.8027651 L81.7375723,87.2846928 L40.6069096,87.2846928 L40.6069096,83.6988976 L75.5835843,83.6988976 C76.5545723,83.6988976 77.3426205,82.9108494 77.3426205,81.9398614 C77.3426205,80.967994 76.5545723,80.1808253 75.5835843,80.1808253 L40.6069096,80.1808253 L40.6069096,48.6773675 L90.6673193,48.6773675 L90.6673193,60.940488 L94.1853916,60.940488 L94.1853916,46.9183313 C94.1853916,45.9473434 93.3973434,45.1592952 92.4263554,45.1592952" id="Fill-6" fill-opacity="0.5" fill="#EFEFEF"></path>
        </g>
    </g>
</svg>