<?xml version="1.0" encoding="UTF-8"?>
<svg width="30px" height="30px" viewBox="0 0 30 30" version="1.1" xmlns="http://www.w3.org/2000/svg" xmlns:xlink="http://www.w3.org/1999/xlink">
    <!-- Generator: Sketch 53.1 (72631) - https://sketchapp.com -->
    <title>Slice 1</title>
    <desc>Created with Sketch.</desc>
    <g id="Page-1" stroke="none" stroke-width="1" fill="none" fill-rule="evenodd">
        <g id="icon" transform="translate(1.000000, 4.000000)">
            <path d="M19.3715657,6.72904571 C19.3715657,7.35258857 15.2657371,8.00881714 13.7106514,9.98630286 C10.6080229,13.11156 12.9085943,15.5428743 12.2203086,16.2833314 C7.82219429,15.8339029 6.14013714,18.6781886 2.58305143,18.6781886 C3.01299429,16.6768171 3.14499429,15.2254457 2.58305143,14.1260743 C1.76465143,12.5257314 0.0109371429,11.4408171 0.0109371429,8.56761714 C0.0109371429,3.72133143 4.67808,0.000188571429 9.52436571,0.000188571429 C14.3706514,0.000188571429 17.7479657,2.22847429 19.3715657,6.72904571" id="Fill-1" fill="#1585FF"></path>
            <path d="M19.4921886,7.4184 C19.0364743,3.58662857 15.0953314,0 9.52493143,0" id="Stroke-3" stroke="#122F44" stroke-width="2" stroke-linecap="round" stroke-linejoin="round"></path>
            <path d="M9.52468,0.000125714286 C2.07485143,0.234582857 -3.75074857,7.62406857 2.93536571,14.49624" id="Stroke-5" stroke="#122F44" stroke-width="2" stroke-linecap="round" stroke-linejoin="round"></path>
            <path d="M2.93511429,14.4965543 L2.23111429,18.9229543" id="Stroke-7" stroke="#122F44" stroke-width="2" stroke-linecap="round" stroke-linejoin="round"></path>
            <path d="M8.99492,16.4596457 L2.23149143,18.9230171" id="Stroke-9" stroke="#122F44" stroke-width="2" stroke-linecap="round" stroke-linejoin="round"></path>
            <path d="M12.2203714,16.2834571 L8.99517143,16.4594571" id="Stroke-11" stroke="#122F44" stroke-width="2" stroke-linecap="round" stroke-linejoin="round"></path>
            <path d="M19.4921886,7.4184 C24.6728743,7.24805714 30.7618457,13.0466286 25.2197314,18.678" id="Stroke-13" stroke="#122F44" stroke-width="2" stroke-linecap="round" stroke-linejoin="round"></path>
            <path d="M19.4921886,7.4184 C13.9601314,7.5944 10.7154457,12.7065714 12.2202457,16.2837714" id="Stroke-15" stroke="#122F44" stroke-width="2" stroke-linecap="round" stroke-linejoin="round"></path>
            <path d="M12.2203714,16.2834571 C12.9702571,18.4482571 16.0521429,20.6136857 19.8832857,20.6136857" id="Stroke-17" stroke="#122F44" stroke-width="2" stroke-linecap="round" stroke-linejoin="round"></path>
            <path d="M19.8832229,20.6134971 L25.1324229,21.7864114" id="Stroke-19" stroke="#122F44" stroke-width="2" stroke-linecap="round" stroke-linejoin="round"></path>
            <path d="M25.21992,18.678 L25.13192,21.7862857" id="Stroke-21" stroke="#122F44" stroke-width="2" stroke-linecap="round" stroke-linejoin="round"></path>
            <path d="M7.27772571,6.72904571 C7.27772571,7.38213143 6.74846857,7.91138857 6.09601143,7.91138857 C5.44355429,7.91138857 4.91366857,7.38213143 4.91366857,6.72904571 C4.91366857,6.07658857 5.44355429,5.54733143 6.09601143,5.54733143 C6.74846857,5.54733143 7.27772571,6.07658857 7.27772571,6.72904571" id="Fill-23" fill="#122F44"></path>
            <path d="M14.2613429,6.72904571 C14.2613429,7.38213143 13.7320857,7.91138857 13.0796286,7.91138857 C12.4265429,7.91138857 11.8972857,7.38213143 11.8972857,6.72904571 C11.8972857,6.07658857 12.4265429,5.54733143 13.0796286,5.54733143 C13.7320857,5.54733143 14.2613429,6.07658857 14.2613429,6.72904571" id="Fill-25" fill="#122F44"></path>
            <path d="M17.7476514,13.1117486 C17.7476514,13.6724343 17.2931943,14.1256343 16.7331371,14.1256343 C16.17308,14.1256343 15.7186229,13.6724343 15.7186229,13.1117486 C15.7186229,12.5510629 16.17308,12.0978629 16.7331371,12.0978629 C17.2931943,12.0978629 17.7476514,12.5510629 17.7476514,13.1117486" id="Fill-27" fill="#122F44"></path>
            <path d="M22.7117943,13.1117486 C22.7117943,13.6724343 22.2573371,14.1256343 21.69728,14.1256343 C21.1372229,14.1256343 20.6827657,13.6724343 20.6827657,13.1117486 C20.6827657,12.5510629 21.1372229,12.0978629 21.69728,12.0978629 C22.2573371,12.0978629 22.7117943,12.5510629 22.7117943,13.1117486" id="Fill-29" fill="#122F44"></path>
        </g>
    </g>
</svg>