<?xml version="1.0" encoding="UTF-8"?>
<svg width="29px" height="28px" viewBox="0 0 29 28" version="1.1" xmlns="http://www.w3.org/2000/svg" xmlns:xlink="http://www.w3.org/1999/xlink">
    <!-- Generator: Sketch 53.1 (72631) - https://sketchapp.com -->
    <title>Slice 1</title>
    <desc>Created with Sketch.</desc>
    <g id="Page-1" stroke="none" stroke-width="1" fill="none" fill-rule="evenodd">
        <g id="icon" transform="translate(1.000000, 1.000000)">
            <path d="M26.07865,12.6836667 C26.07865,19.6877778 20.4012611,25.3658889 13.39715,25.3658889 C6.39303889,25.3658889 0.714927778,19.6877778 0.714927778,12.6836667 C0.714927778,5.67955556 6.39303889,0.00216666667 13.39715,0.00216666667 C20.4012611,0.00216666667 26.07865,5.67955556 26.07865,12.6836667" id="Fill-1" fill="#4FBBB2"></path>
            <path d="M26.0818278,12.6797667 C26.0818278,19.6824333 20.4051611,25.3598222 13.4017722,25.3598222 C6.39910556,25.3598222 0.722438889,19.6824333 0.722438889,12.6797667 C0.722438889,5.6771 6.39910556,-0.000288888889 13.4017722,-0.000288888889 C20.4051611,-0.000288888889 26.0818278,5.6771 26.0818278,12.6797667 Z" id="Stroke-3" stroke="#101010" stroke-width="2" stroke-linecap="round" stroke-linejoin="round"></path>
            <path d="M3.87096667,4.55758333 C5.39052222,6.49313889 10.5630778,7.10125 13.4021333,7.05069444" id="Stroke-5" stroke="#101010" stroke-width="2" stroke-linecap="round" stroke-linejoin="round"></path>
            <path d="M22.9330111,4.55758333 C21.4134556,6.49313889 16.2394556,7.05069444 13.4018444,7.05069444" id="Stroke-7" stroke="#101010" stroke-width="2" stroke-linecap="round" stroke-linejoin="round"></path>
            <path d="M3.87096667,20.9081167 C5.39052222,18.9725611 10.5630778,18.36445 13.4021333,18.4150056" id="Stroke-9" stroke="#101010" stroke-width="2" stroke-linecap="round" stroke-linejoin="round"></path>
            <path d="M22.9330111,20.9081167 C21.4134556,18.9725611 16.2394556,18.4150056 13.4018444,18.4150056" id="Stroke-11" stroke="#101010" stroke-width="2" stroke-linecap="round" stroke-linejoin="round"></path>
            <path d="M0.722222222,12.6797667 L26.0722222,12.6848222" id="Stroke-13" stroke="#101010" stroke-width="2" stroke-linecap="round" stroke-linejoin="round"></path>
            <path d="M13.4019889,-7.22222222e-05 L13.4019889,25.3593167" id="Stroke-15" stroke="#101010" stroke-width="2" stroke-linecap="round" stroke-linejoin="round"></path>
            <path d="M13.4019889,-7.22222222e-05 C19.1248778,2.18176111 19.1241556,11.68115 19.1241556,12.6835944" id="Stroke-17" stroke="#101010" stroke-width="2" stroke-linecap="round" stroke-linejoin="round"></path>
            <path d="M13.4019889,25.3655278 C19.1248778,23.1836944 19.1241556,13.6843056 19.1241556,12.6818611" id="Stroke-19" stroke="#101010" stroke-width="2" stroke-linecap="round" stroke-linejoin="round"></path>
            <path d="M13.4019889,-7.22222222e-05 C7.6791,2.18176111 7.67982222,11.68115 7.67982222,12.6835944" id="Stroke-21" stroke="#101010" stroke-width="2" stroke-linecap="round" stroke-linejoin="round"></path>
            <path d="M13.4019889,25.3655278 C7.6791,23.1836944 7.67982222,13.6843056 7.67982222,12.6818611" id="Stroke-23" stroke="#101010" stroke-width="2" stroke-linecap="round" stroke-linejoin="round"></path>
        </g>
    </g>
</svg>